<svg
    xmlns="http://www.w3.org/2000/svg" viewBox="0 0 400.63 462.41">
    <defs>
    </defs>
    <path d="M237.09,25.11c-.29.3-.57.6-.84.92L147.4,114.88A14.93,14.93,0,1,0,168.51,136l64.23-64.22v203.1a14.95,14.95,0,1,0,29.89,0V71.77L326.85,136A14.93,14.93,0,0,0,348,114.88L259.11,26c-.27-.32-.54-.62-.83-.92a15,15,0,0,0-10.58-4.35h0a14.93,14.93,0,0,0-10.57,4.35Z" transform="translate(-47.37 -20.76)"/>
    <path d="M241.48,483.08a200.33,200.33,0,0,1-145-331.65,7,7,0,0,1,10-.53l9.82,9.18a6.94,6.94,0,0,1,.54,9.6A172.29,172.29,0,0,0,74.74,282.86c0,95.36,77.58,172.94,172.94,172.94s173-77.58,173-172.94a172.28,172.28,0,0,0-42.26-113.28,6.93,6.93,0,0,1,.54-9.6l9.81-9.19a7,7,0,0,1,10,.53A199.56,199.56,0,0,1,448,282.86a198.89,198.89,0,0,1-54.35,137.19A201,201,0,0,1,241.48,483.08Z" transform="translate(-47.37 -20.76)"/>
</svg>