<svg
    xmlns="http://www.w3.org/2000/svg" viewBox="0 0 471.26 471.26">
    <path d="M348.12,207.19H290.36V149.65a24.73,24.73,0,0,0-24.73-24.72H151a24.72,24.72,0,0,0-24.72,24.72V264.83A24.73,24.73,0,0,0,151,289.56h57.77v57.53a24.73,24.73,0,0,0,24.72,24.73H348.12a24.73,24.73,0,0,0,24.73-24.73V231.91A24.73,24.73,0,0,0,348.12,207.19ZM208.73,231.91v32.66h-45.1a12.36,12.36,0,0,1-12.37-12.36V162.52a12.37,12.37,0,0,1,12.37-12.37H253a12.36,12.36,0,0,1,12.36,12.37v44.67H233.45A24.72,24.72,0,0,0,208.73,231.91Zm56.6.5v19.8A12.36,12.36,0,0,1,253,264.57H233.75V244.78a12.37,12.37,0,0,1,12.37-12.37Zm82.49,102a12.36,12.36,0,0,1-12.36,12.37H246.12a12.37,12.37,0,0,1-12.37-12.37v-44.9h31.88a24.73,24.73,0,0,0,24.73-24.72V232.41h45.1a12.37,12.37,0,0,1,12.36,12.37Z" transform="translate(-13.91 -12.74)"/>
    <path d="M249.54,248.37" transform="translate(-13.91 -12.74)"/>
    <path d="M249.54,484A235.69,235.69,0,0,1,157.82,31.27,235.68,235.68,0,0,1,341.26,465.48,234.11,234.11,0,0,1,249.54,484Zm0-446.3c-116.16,0-210.67,94.5-210.67,210.67s94.51,210.68,210.67,210.68,210.68-94.51,210.68-210.68S365.71,37.7,249.54,37.7Z" transform="translate(-13.91 -12.74)"/>
</svg>