<svg
    xmlns="http://www.w3.org/2000/svg" viewBox="0 0 395.71 395.71">
    <path d="M249.7-4.28" transform="translate(-51.58 -57.29)"/>
    <path d="M309.36,176.1" transform="translate(-51.58 -57.29)"/>
    <path d="M190.05,176.1" transform="translate(-51.58 -57.29)"/>
    <path d="M401.43,65.16l-152,152-152-152a26.87,26.87,0,0,0-38,38l152,152-152,152a26.87,26.87,0,0,0,38,38l152-152,152,152a26.87,26.87,0,0,0,38-38l-152-152,152-152a26.87,26.87,0,0,0-38-38Z" transform="translate(-51.58 -57.29)"/>
</svg>