<svg  xmlns="http://www.w3.org/2000/svg" viewBox="0 0 482.63 482.63"><path d="M249.69,8.93" transform="translate(-8.37 -8.93)"/><path d="M305.19,176.77" transform="translate(-8.37 -8.93)"/><path d="M420.32,79.61A241.32,241.32,0,0,0,249.69,8.93C116.41,8.93,8.37,117,8.37,250.25s108,241.31,241.32,241.31S491,383.52,491,250.25A241.32,241.32,0,0,0,420.32,79.61Zm-71.08,232.9A26.37,26.37,0,0,1,312,349.8l-62.26-62.27L187.42,349.8a26.37,26.37,0,1,1-37.29-37.29l62.27-62.26L150.13,188a26.37,26.37,0,0,1,37.29-37.29L249.69,213,312,150.69A26.37,26.37,0,1,1,349.24,188L287,250.25Z" transform="translate(-8.37 -8.93)"/><path d="M194.18,176.77" transform="translate(-8.37 -8.93)"/></svg>