<svg
    xmlns="http://www.w3.org/2000/svg"
    xmlns:xlink="http://www.w3.org/1999/xlink" viewBox="0 0 485.71 485.71">
    <defs>
        <clipPath id="clip-path" transform="translate(-6.95 -6.59)">
            <rect x="7.03" y="6.28" width="485.97" height="486.67"/>
        </clipPath>
    </defs>
    <g>
        <path d="M249.81,492.3C115.89,492.3,7,383.36,7,249.44S115.89,6.59,249.81,6.59,492.67,115.53,492.67,249.44,383.73,492.3,249.81,492.3Zm0-451C135,41.28,41.65,134.66,41.65,249.44S135,457.61,249.81,457.61,458,364.23,458,249.44,364.59,41.28,249.81,41.28Zm0,0" transform="translate(-6.95 -6.59)"/>
    </g>
    <path d="M250,423.11a26,26,0,1,1,26-26,26,26,0,0,1-26,26Zm0,0" transform="translate(-6.95 -6.59)"/>
    <path d="M298,245.75c-15.09,15.08-30.67,30.66-30.67,44.65v29.34a17.35,17.35,0,0,1-34.69,0V290.4c0-28.38,21.68-50.06,40.83-69.19,14-14,28.56-28.54,28.56-40.11,0-28.92-23.35-52.44-52.05-52.44-29.17,0-52,22.52-52,51.26a17.35,17.35,0,1,1-34.69,0c0-47.39,38.91-86,86.73-86s86.74,39.09,86.74,87.14c0,26-19.69,45.62-38.72,64.65Zm0,0" transform="translate(-6.95 -6.59)"/>
</svg>