<svg
    xmlns="http://www.w3.org/2000/svg" viewBox="0 0 462.11 450.57">
    <path d="M163.1,468.66a40.88,40.88,0,0,1-56.7-13.84,41.92,41.92,0,0,1-4.85-31.1l25.18-107.35a7.13,7.13,0,0,0-2.18-7l-82.4-71.8a41.8,41.8,0,0,1-4.46-58.34,41,41,0,0,1,28-14.49L173.84,156a6.5,6.5,0,0,0,5.43-4.11L220.94,50a41,41,0,0,1,76,0l41.67,101.89A6.49,6.49,0,0,0,344,156l108.15,8.82c22.68,1.84,39.47,21.91,37.68,44.68a41.69,41.69,0,0,1-14.13,28.15l-82.4,71.8a7.14,7.14,0,0,0-2.18,7l25.18,107.36a41.53,41.53,0,0,1-30.4,49.94,40.8,40.8,0,0,1-31.16-5l-92.59-57.53a6.1,6.1,0,0,0-6.5,0l-92.6,57.53Zm117.39-87,92.6,57.54a6.09,6.09,0,0,0,4.68.76,6.89,6.89,0,0,0,4.83-8.35L357.43,324.28a41.77,41.77,0,0,1,13.15-41l82.4-71.8a7,7,0,0,0,2.34-4.73,6.74,6.74,0,0,0-5.94-7.42L341.23,190.5A41.13,41.13,0,0,1,306.54,165L264.87,63.06a6.67,6.67,0,0,0-3.54-3.65,6.31,6.31,0,0,0-8.3,3.65L211.36,165a41.16,41.16,0,0,1-34.7,25.54L68.52,199.32a6.31,6.31,0,0,0-4.32,2.26,7.16,7.16,0,0,0,.72,9.89l82.4,71.81a41.79,41.79,0,0,1,13.15,41L135.29,431.64a7.26,7.26,0,0,0,.82,5.35,6.24,6.24,0,0,0,8.7,2.23l92.6-57.53a40.8,40.8,0,0,1,43.08,0Zm0,0" transform="translate(-27.89 -24.26)"/>
</svg>