<svg
    xmlns="http://www.w3.org/2000/svg" viewBox="0 0 455.4 363.25">
    <defs>
    </defs>
    <path d="M249.7-4.28" transform="translate(-22.6 -68.69)"/>
    <path d="M309.36,176.1" transform="translate(-22.6 -68.69)"/>
    <path d="M190.05,176.1" transform="translate(-22.6 -68.69)"/>
    <path d="M455.23,109.36C467.8,109.36,478,100.25,478,89s-10.2-20.34-22.77-20.34H45.38C32.8,68.69,22.6,77.8,22.6,89s10.2,20.33,22.78,20.33Zm0,161.29c12.57,0,22.77-9.11,22.77-20.33S467.82,230,455.23,230H224.29c-12.57,0-22.77,9.1-22.77,20.33s10.2,20.33,22.77,20.33ZM25.82,243.29a9.53,9.53,0,0,0-.89,13.38,12.45,12.45,0,0,0,.89.89l97.74,85.26a4.77,4.77,0,0,0,7.88-3.61V161.41a4.75,4.75,0,0,0-7.88-3.56Zm19.56,148c-12.58,0-22.78,9.11-22.78,20.33s10.2,20.33,22.78,20.33H455.23c12.57,0,22.77-9.1,22.77-20.33s-10.2-20.33-22.77-20.33Zm0,0" transform="translate(-22.6 -68.69)"/>
</svg>