<svg
    xmlns="http://www.w3.org/2000/svg" viewBox="0 0 444.64 494.05">
    <path d="M62.43,319.47V188.23C62.43,86.1,145.37,3.31,247.68,3.31S432.93,86.1,432.93,188.23V319.47L468,389.53a18.49,18.49,0,0,1-16.57,26.76H43.91a18.49,18.49,0,0,1-16.57-26.76Zm359.05,59.84L397.83,332.1a18.66,18.66,0,0,1-2-8.27V188.23c0-81.71-66.34-147.93-148.19-147.93S99.48,106.52,99.48,188.23V323.82a18.44,18.44,0,0,1-2,8.28L73.88,379.3h347.6ZM164.82,467.49a18.5,18.5,0,1,1,23.69-28.43,92.79,92.79,0,0,0,118.33,0,18.5,18.5,0,1,1,23.68,28.44,129.85,129.85,0,0,1-165.7,0Zm0,0" transform="translate(-25.36 -3.31)"/>
</svg>