<svg
    xmlns="http://www.w3.org/2000/svg" viewBox="0 0 472.32 472.87">
    <path d="M122.19,277a108.51,108.51,0,1,0,108.5,108.51V277Zm79.73,108.51a79.74,79.74,0,1,1-79.73-79.74h79.73Z" transform="translate(-13.68 -21.15)"/>
    <path d="M230.69,238.7V130.2a108.51,108.51,0,1,0-108.5,108.5Zm-28.77-28.77H122.19a79.74,79.74,0,1,1,79.73-79.73Z" transform="translate(-13.68 -21.15)"/>
    <path d="M269,276.45V385a108.51,108.51,0,1,0,108.5-108.51Zm28.77,28.77h79.73A79.74,79.74,0,1,1,297.76,385Z" transform="translate(-13.68 -21.15)"/>
    <path d="M377.49,238.16A108.51,108.51,0,1,0,269,129.65V238.16ZM297.76,129.65a79.74,79.74,0,1,1,79.73,79.73H297.76Z" transform="translate(-13.68 -21.15)"/>
    <path d="M307.29,315.3" transform="translate(-13.68 -21.15)"/>
</svg>