<svg
    xmlns="http://www.w3.org/2000/svg" viewBox="0 0 488.86 435.72">
    <defs>
    </defs>
    <rect class="cls-1" width="488.84" height="435.72"/>
    <path class="cls-2" d="M495,401.84v-86l0-.69A118.29,118.29,0,0,0,491.75,293a118.42,118.42,0,0,0-8.61-21.53c-.21-.39-.42-.76-.65-1.11l-51.23-81.2q-.42-.66-.9-1.29c-1.57-2-9.94-12.42-20.33-18.37-10.89-6.23-25-7.42-27.67-7.59l-1.06,0H108.78c-3.63,0-16.26.5-26.69,7C72.17,175,65,185.3,63.6,187.3a12.8,12.8,0,0,0-.69,1.11L19.77,264.75a106.22,106.22,0,0,0-9.95,23.34,89.46,89.46,0,0,0-3.6,28.78v85.94c0,.29,0,.57,0,.86.16,3.06,1.56,18.84,13.26,29.81,11.41,10.7,28.54,11.79,31.84,11.9H447.77c4.76,0,21.26-.85,33.51-11.82C494.22,422,495.06,406.38,495,401.84Zm-28.81,15.37c-2.68,2.52-8.61,3.7-12,3.75H45.7c-2-.13-7.85-1.17-10.21-3l-.26-.2-.23-.25c-1.67-1.84-2.65-5.89-2.86-7.57l0-.26V316.56c0-.41,0-.84,0-1.26a64.35,64.35,0,0,1,2.32-19.08,88.27,88.27,0,0,1,6.55-16.68s.19-.36.2-.4v0l.47-.84,44.27-82.2.13-.2c1.55-2.21,5.3-6.95,8.48-9,2.25-1.48,7.12-2.21,9.75-2.23H385.06c3.43.34,10.07,1.6,13.34,3.56,3.76,2.26,8.48,7.58,10.45,10.07l.16.2,51.91,86.37.2.35a94.46,94.46,0,0,1,5.75,15.14,95.32,95.32,0,0,1,2.23,16.29v92.72l0,1.08C469.13,411.07,468.59,415,466.19,417.21Z" transform="translate(-6.14 -10.32)"/>
    <path class="cls-2" d="M249.67,378c-36.48,0-68.18-20.3-77.07-49.36l-.72-2.35-145.42-.07c-9,0-16.37-6.1-16.38-13.6s7.34-13.58,16.38-13.59l160.13.09c9,0,16.35,6.09,16.37,13.6,0,21.36,20.51,38.09,46.71,38.09s46.55-16.73,46.55-38.09c0-7.5,7.34-13.58,16.38-13.6l158.65-.09c9,0,16.38,6.09,16.38,13.58s-7.33,13.6-16.36,13.61l-143.95.07-.72,2.34C317.71,357.73,286.08,378,249.67,378Z" transform="translate(-6.14 -10.32)"/>
    <path class="cls-2" d="M249.67,378" transform="translate(-6.14 -10.32)"/>
    <rect class="cls-2" x="233.24" y="32.21" width="24.52" height="95.34" rx="12.26"/>
    <rect class="cls-2" x="341.13" y="52.9" width="24.52" height="95.34" rx="12.26" transform="translate(526.02 411.24) rotate(-135)"/>
    <rect class="cls-2" x="138.31" y="52.9" width="24.52" height="95.34" rx="12.26" transform="translate(-33.15 125.6) rotate(-45)"/>
</svg>