<svg
    xmlns="http://www.w3.org/2000/svg"
    xmlns:xlink="http://www.w3.org/1999/xlink" viewBox="0 0 447.99 448.1">
    <defs>
        <clipPath id="clip-path" transform="translate(-24.07 -28.59)">
            <rect x="24.07" y="28.3" width="447.93" height="448.93"/>
        </clipPath>
    </defs>
    <g>
        <path d="M435.35,117.32h-47V83a54.4,54.4,0,0,0-54.29-54.44H162A54.44,54.44,0,0,0,107.75,83v34.29h-47a36.83,36.83,0,0,0-36.7,36.82c0,53.89,36,87.28,85.14,101.74A140.86,140.86,0,0,0,232.36,375.55v69.53H159.15a15.81,15.81,0,0,0,0,31.61H336.94a15.81,15.81,0,0,0,0-31.61H263.73V375.55A140.79,140.79,0,0,0,386.88,255.88C436,241.42,472.06,208,472.06,154.14a36.83,36.83,0,0,0-36.71-36.82ZM53.58,154.14a7.27,7.27,0,0,1,7.19-7h47V224c-31.8-13.63-54.17-33-54.17-69.82ZM248.05,346.83A111.22,111.22,0,0,1,137.42,235.69V83A24.81,24.81,0,0,1,162,58.22h172A24.81,24.81,0,0,1,358.83,83V235.69A111.23,111.23,0,0,1,248.2,346.83ZM388.34,224V147.11h47a7.26,7.26,0,0,1,7.15,7.19c0,36.63-22.36,56-54.16,69.66Zm0,0" transform="translate(-24.07 -28.59)"/>
    </g>
    <path d="M328.88,234a14.73,14.73,0,0,0-19,8.65,67.17,67.17,0,0,1-40.5,39.51A14.81,14.81,0,0,0,274.2,311a14.44,14.44,0,0,0,4.78-.79A95.78,95.78,0,0,0,337.49,253a14.82,14.82,0,0,0-8.61-19Z" transform="translate(-24.07 -28.59)"/>
    <path d="M250.49,97.69" transform="translate(-24.07 -28.59)"/>
    <path d="M201.7,207.75,217.06,188c8.43,7.6,18.17,12.72,29,12.72,12.93,0,21.36-5.12,21.36-15,0-11.31-6.37-18-35.6-18V145.57c23.8,0,31.29-6.89,31.29-17.31,0-9-5.62-14-15.92-14-9.37,0-16.49,4.06-24.92,11L205.44,106c12.93-10.25,26.8-16.25,43.28-16.25,28.86,0,47.78,12.72,47.78,36.21,0,13.07-7.49,23.32-22.48,29v.88c15.55,4.42,27,15,27,32,0,24.55-23.8,38.33-51.53,38.33C227.36,226.12,211.81,218.88,201.7,207.75Z" transform="translate(-24.07 -28.59)"/>
</svg>