<svg
    xmlns="http://www.w3.org/2000/svg" viewBox="0 0 486.47 431.94">
    <defs>
    </defs>
    <path d="M268.92,355.41H230c-84.21,0-152.67-68.46-152.67-152.67V47A16.37,16.37,0,0,1,93.69,30.6H405.28A16.37,16.37,0,0,1,421.64,47V202.74c-.05,84.21-68.51,152.67-152.72,152.67ZM110,63.34v139.4A120.08,120.08,0,0,0,230,322.68h38.93c66.14,0,120-53.8,120-119.94V63.34Zm0,0" transform="translate(-6.53 -30.6)"/>
    <path d="M249.46,462.55a16.37,16.37,0,0,1-16.37-16.37V339.1a16.37,16.37,0,1,1,32.73,0V446.23a16.36,16.36,0,0,1-16.36,16.32Zm0,0" transform="translate(-6.53 -30.6)"/>
    <path d="M385.76,462.55H113.15a16.37,16.37,0,0,1,0-32.74H385.76a16.37,16.37,0,0,1,0,32.74ZM91.05,248.33a84.52,84.52,0,0,1,0-169,16.37,16.37,0,1,1,0,32.74,51.79,51.79,0,0,0,0,103.57,16.37,16.37,0,1,1,0,32.73Zm317.43,0a16.37,16.37,0,1,1,0-32.73,51.79,51.79,0,0,0,0-103.57,16.37,16.37,0,0,1,0-32.74,84.52,84.52,0,0,1,0,169Zm-159,19.47a16.36,16.36,0,0,1-14.67-9.14l-18.33-37.18-41-5.94a16.38,16.38,0,0,1-9.09-27.93l29.69-28.91-7-40.84a16.36,16.36,0,0,1,23.75-17.25l36.66,19.31,36.71-19.31a16.35,16.35,0,0,1,23.74,17.25l-7,40.84,29.69,28.91a16.39,16.39,0,0,1-9.08,27.93l-41,5.94-18.33,37.18a16.45,16.45,0,0,1-14.71,9.14ZM213,188l16.73,2.43A16.53,16.53,0,0,1,242,199.33l7.49,15.18L257,199.33a16.38,16.38,0,0,1,12.29-8.93L286,188,273.93,176.2a16.27,16.27,0,0,1-4.7-14.46l2.84-16.67-15,7.85a16.23,16.23,0,0,1-15.23,0l-15-7.85,2.84,16.67A16.43,16.43,0,0,1,225,176.2Zm0,0" transform="translate(-6.53 -30.6)"/>
</svg>