<svg
    xmlns="http://www.w3.org/2000/svg"
    xmlns:xlink="http://www.w3.org/1999/xlink" viewBox="0 0 439.08 483.4">
    <defs>
        <clipPath id="clip-path" transform="translate(-27.98 -7.07)">
            <rect x="28.07" y="6.92" width="439.31" height="484.24"/>
        </clipPath>
    </defs>
    <g>
        <path d="M442.43,169.82l-.17.11a18.41,18.41,0,0,0-34.18,9.43,18,18,0,0,0,2.06,8.4h-.06a182.13,182.13,0,0,1,19.66,82.6c0,100.94-81.84,182.79-182.79,182.79A182.77,182.77,0,0,1,64.16,270.36c0-87.11,60.88-159.59,142.39-177.88l-19.21,25a18.34,18.34,0,1,0,29.09,22.35l43-55.9a18.35,18.35,0,0,0-2.34-29L199.68,10.8a18.2,18.2,0,0,0-25.37,3.26l-.35.46a18.1,18.1,0,0,0,3.32,25.32L199.23,56.7C101.2,78.71,28,166.27,28,270.93c0,121.23,98.32,219.54,219.55,219.54s219.54-98.31,219.54-219.54a217.87,217.87,0,0,0-24.64-101.11Zm0,0" transform="translate(-27.98 -7.07)"/>
    </g>
</svg>