<svg
    xmlns="http://www.w3.org/2000/svg" viewBox="0 0 456.22 423.72">
    <defs>
    </defs>
    <path d="M394,158.55a12,12,0,0,1,12,12.21V388.21a.21.21,0,0,0,.36.15l34.21-34.2a12,12,0,0,1,17,0l17,17a12,12,0,0,1,0,17l-65.31,65.31A30,30,0,0,1,358,434.17l-.06-2V170.76a12.35,12.35,0,0,1,.82-4.59A12,12,0,0,1,370,158.55Z" transform="translate(-21.78 -38.5)"/>
    <path d="M273.9,398.67a12,12,0,0,1,10.5,6.17,12.5,12.5,0,0,1,1.51,6.14v23.71a12,12,0,0,1-12,12H34.09a12.56,12.56,0,0,1-6.13-1.5,12,12,0,0,1-6.18-10.5v-24a12,12,0,0,1,12-12Z" transform="translate(-21.78 -38.5)"/>
    <path d="M273.9,218.58a12,12,0,0,1,10.5,6.18,12.46,12.46,0,0,1,1.51,6.13V254.6a12,12,0,0,1-12,12H34.09A12.53,12.53,0,0,1,28,265.1a12,12,0,0,1-6.18-10.5v-24a12,12,0,0,1,12-12Z" transform="translate(-21.78 -38.5)"/>
    <path d="M466,38.5a12,12,0,0,1,12,12v24a12,12,0,0,1-12,12H34.09A12.5,12.5,0,0,1,28,85a12,12,0,0,1-6.17-10.5v-24a12,12,0,0,1,12-12Z" transform="translate(-21.78 -38.5)"/>
    <path d="M466,38.5" transform="translate(-21.78 -38.5)"/>
</svg>