<svg id="图层_1" data-name="图层 1"
    xmlns="http://www.w3.org/2000/svg" viewBox="0 0 481.18 480.74">
    <defs>
        <style>.cls-trans{fill:none;}</style>
    </defs>
    <path d="M9.36,249.85C9.36,382.48,116.88,490,249.51,490S489.65,382.48,489.65,249.85,382.13,9.71,249.51,9.71,9.36,117.23,9.36,249.85Zm447.54,0c0,114.53-92.85,207.4-207.39,207.4s-207.4-92.87-207.4-207.4S135,42.46,249.51,42.46,456.9,135.3,456.9,249.85Zm0,0" transform="translate(-9.05 -9.26)"/>
    <rect class="cls-trans" width="481.18" height="480.67"/>
    <path d="M280.8,275.69l27,27H151.26a16.38,16.38,0,0,0,0,32.75H309.2l-27.05,27a16.38,16.38,0,0,0,23.16,23.18l54-54a16,16,0,0,0,4.33-8.92c0-.18.09-.36.12-.54a14.91,14.91,0,0,0,.2-2c0-.37.11-.73.11-1.1A16.32,16.32,0,0,0,357,305.64L304,252.54a16.37,16.37,0,1,0-23.16,23.15Z" transform="translate(-9.05 -9.26)"/>
    <path d="M139.65,168.07a16,16,0,0,0-4.3,8.81c0,.23-.11.47-.16.71a15.12,15.12,0,0,0-.19,1.89c0,.38-.11.74-.11,1.14a16.33,16.33,0,0,0,7.05,13.44l53.11,53.12A16.37,16.37,0,1,0,218.21,224l-27-27H347.74a16.38,16.38,0,0,0,0-32.75H189.8l27-27A16.39,16.39,0,0,0,193.68,114Z" transform="translate(-9.05 -9.26)"/>
    <path d="M139.65,168.07" transform="translate(-9.05 -9.26)"/>
</svg>