<svg
    xmlns="http://www.w3.org/2000/svg" viewBox="0 0 438.63 459.52">
    <path d="M463.08,434.41a41.74,41.74,0,0,1-3.91,18.28A97.75,97.75,0,0,1,450,468.35a58.23,58.23,0,0,1-14.36,10.45,41.71,41.71,0,0,1-18.28,3.91H76.67a41.71,41.71,0,0,1-18.28-3.91c-6.53-2.62-11.75-5.23-15.66-10.45a46.87,46.87,0,0,1-10.45-15.66,41.74,41.74,0,0,1-3.91-18.28V174.62a47.4,47.4,0,0,1,14.36-33.94,47.37,47.37,0,0,1,33.94-14.36h342a49,49,0,0,1,48.3,48.3v70.5H345.59c-13,0-24.8,3.92-33.94,13.05s-14.36,19.58-14.36,33.95c0,9.13,2.61,17,5.22,23.49s7.83,11.75,14.36,15.67q9.79,7.83,27.42,7.83H463.08ZM392.59,102.82H156.3c18.28-9.13,36.55-19.58,53.52-28.72l43.09-23.49c14.35-7.84,24.8-13.06,33.94-18.28,11.74-6.53,23.49-9.14,32.63-9.14s18.28,2.61,24.81,5.22a57.82,57.82,0,0,1,19.58,15.67Zm-70.5,189.3c0-6.53,2.61-11.75,6.53-17,3.92-3.91,10.45-6.52,17-6.52s11.75,2.61,17,6.52c3.92,3.92,6.53,10.45,6.53,17s-2.61,11.74-6.53,17-10.44,6.52-17,6.52-11.75-2.61-17-6.52c-3.92-3.92-6.53-9.14-6.53-17Zm0,0" transform="translate(-28.37 -23.19)"/>
</svg>